<svg width="30" height="30" viewBox="0 0 30 30" fill="none" xmlns="http://www.w3.org/2000/svg">
<path d="M25.6598 4.39861L20.1848 2.57361C20.1848 3.89969 19.658 5.17146 18.7203 6.10914C17.7827 7.04682 16.5109 7.57361 15.1848 7.57361C13.8587 7.57361 12.587 7.04682 11.6493 6.10914C10.7116 5.17146 10.1848 3.89969 10.1848 2.57361L4.7098 4.39861C4.14403 4.5871 3.66428 4.97163 3.35712 5.48279C3.04997 5.99395 2.93565 6.59806 3.0348 7.18611L3.7598 11.5236C3.8074 11.8172 3.95815 12.0843 4.18498 12.2767C4.41181 12.4692 4.69983 12.5745 4.9973 12.5736H7.6848V25.0736C7.6848 26.4486 8.8098 27.5736 10.1848 27.5736H20.1848C20.8478 27.5736 21.4837 27.3102 21.9526 26.8414C22.4214 26.3725 22.6848 25.7366 22.6848 25.0736V12.5736H25.3723C25.6698 12.5745 25.9578 12.4692 26.1846 12.2767C26.4115 12.0843 26.5622 11.8172 26.6098 11.5236L27.3348 7.18611C27.434 6.59806 27.3196 5.99395 27.0125 5.48279C26.7053 4.97163 26.2256 4.5871 25.6598 4.39861Z" stroke="#4F4F64" stroke-width="2" stroke-linecap="round" stroke-linejoin="round"/>
</svg>
